STARTFONT 2.1
FONT -Adobe-New Century Schoolbook-Bold-I-Normal--8-80-75-75-P-56-ISO8859-2
SIZE 8 75 75
FONTBOUNDINGBOX 17 11 -2 -2
COMMENT $XConsortium: ncenBI08.bdf,v 1.13 95/01/26 18:03:42 gildea Exp $
COMMENT 
COMMENT +
COMMENT  Copyright 1984-1989, 1994 Adobe Systems Incorporated.
COMMENT  Copyright 1988, 1994 Digital Equipment Corporation.
COMMENT
COMMENT  Adobe is a trademark of Adobe Systems Incorporated which may be
COMMENT  registered in certain jurisdictions.
COMMENT  Permission to use these trademarks is hereby granted only in
COMMENT  association with the images described in this file.
COMMENT
COMMENT  Permission to use, copy, modify, distribute and sell this software
COMMENT  and its documentation for any purpose and without fee is hereby
COMMENT  granted, provided that the above copyright notices appear in all
COMMENT  copies and that both those copyright notices and this permission
COMMENT  notice appear in supporting documentation, and that the names of
COMMENT  Adobe Systems and Digital Equipment Corporation not be used in
COMMENT  advertising or publicity pertaining to distribution of the software
COMMENT  without specific, written prior permission.  Adobe Systems and
COMMENT  Digital Equipment Corporation make no representations about the
COMMENT  suitability of this software for any purpose.  It is provided "as
COMMENT  is" without express or implied warranty.
COMMENT -
COMMENT  
COMMENT  Translation to ISO8859-2 by Cub Soft;  Petr.Kolar@vslib.cz
COMMENT  
STARTPROPERTIES 28
FOUNDRY "Adobe"
FAMILY_NAME "New Century Schoolbook"
WEIGHT_NAME "Bold"
SLANT "I"
SETWIDTH_NAME "Normal"
ADD_STYLE_NAME ""
PIXEL_SIZE 8
POINT_SIZE 80
RESOLUTION_X 75
RESOLUTION_Y 75
SPACING "P"
AVERAGE_WIDTH 56
CHARSET_REGISTRY "ISO8859"
CHARSET_ENCODING "2"
CAP_HEIGHT 6
X_HEIGHT 4
FONT_ASCENT 7
FONT_DESCENT 2
FACE_NAME "New Century Schoolbook Bold Italic"

STARTCHAR space
ENCODING 32
SWIDTH 287 0
DWIDTH 2 0
BBX 1 1 0 0
BITMAP
00
ENDCHAR
STARTCHAR exclam
ENCODING 33
SWIDTH 333 0
DWIDTH 4 0
BBX 3 6 0 0
BITMAP
60
60
40
00
80
80
ENDCHAR
STARTCHAR quotedbl
ENCODING 34
SWIDTH 400 0
DWIDTH 5 0
BBX 4 2 1 4
BITMAP
50
a0
ENDCHAR
STARTCHAR numbersign
ENCODING 35
SWIDTH 606 0
DWIDTH 6 0
BBX 6 6 0 0
BITMAP
28
fc
28
fc
50
50
ENDCHAR
STARTCHAR dollar
ENCODING 36
SWIDTH 574 0
DWIDTH 5 0
BBX 4 8 0 -1
BITMAP
20
70
40
e0
70
30
e0
40
ENDCHAR
STARTCHAR percent
ENCODING 37
SWIDTH 889 0
DWIDTH 9 0
BBX 8 7 0 -1
BITMAP
7c
a8
c8
13
15
26
20
ENDCHAR
STARTCHAR ampersand
ENCODING 38
SWIDTH 889 0
DWIDTH 8 0
BBX 7 6 0 0
BITMAP
38
28
36
74
da
6c
ENDCHAR
STARTCHAR apostrophe
ENCODING 39
SWIDTH 259 0
DWIDTH 2 0
BBX 2 4 0 3
BITMAP
40
40
40
80
ENDCHAR
STARTCHAR parenleft
ENCODING 40
SWIDTH 407 0
DWIDTH 3 0
BBX 3 8 0 -2
BITMAP
20
40
40
80
80
80
40
40
ENDCHAR
STARTCHAR parenright
ENCODING 41
SWIDTH 407 0
DWIDTH 4 0
BBX 3 8 0 -2
BITMAP
40
40
20
20
20
40
40
80
ENDCHAR
STARTCHAR asterisk
ENCODING 42
SWIDTH 500 0
DWIDTH 5 0
BBX 4 3 1 3
BITMAP
b0
60
b0
ENDCHAR
STARTCHAR plus
ENCODING 43
SWIDTH 606 0
DWIDTH 5 0
BBX 4 5 0 0
BITMAP
20
20
f0
20
20
ENDCHAR
STARTCHAR comma
ENCODING 44
SWIDTH 287 0
DWIDTH 2 0
BBX 2 3 -1 -1
BITMAP
40
40
80
ENDCHAR
STARTCHAR minus
ENCODING 45
SWIDTH 606 0
DWIDTH 6 0
BBX 4 1 1 2
BITMAP
f0
ENDCHAR
STARTCHAR period
ENCODING 46
SWIDTH 287 0
DWIDTH 2 0
BBX 1 2 0 0
BITMAP
80
80
ENDCHAR
STARTCHAR slash
ENCODING 47
SWIDTH 278 0
DWIDTH 4 0
BBX 3 6 0 0
BITMAP
20
20
40
40
80
80
ENDCHAR
STARTCHAR zero
ENCODING 48
SWIDTH 574 0
DWIDTH 5 0
BBX 5 6 0 0
BITMAP
30
58
98
98
b0
60
ENDCHAR
STARTCHAR one
ENCODING 49
SWIDTH 574 0
DWIDTH 5 0
BBX 4 6 0 0
BITMAP
70
30
20
60
60
e0
ENDCHAR
STARTCHAR two
ENCODING 50
SWIDTH 574 0
DWIDTH 5 0
BBX 4 6 0 0
BITMAP
70
b0
20
40
f0
e0
ENDCHAR
STARTCHAR three
ENCODING 51
SWIDTH 574 0
DWIDTH 5 0
BBX 4 6 0 0
BITMAP
70
b0
60
30
b0
e0
ENDCHAR
STARTCHAR four
ENCODING 52
SWIDTH 574 0
DWIDTH 5 0
BBX 5 6 0 0
BITMAP
18
38
50
f8
20
70
ENDCHAR
STARTCHAR five
ENCODING 53
SWIDTH 574 0
DWIDTH 5 0
BBX 5 6 0 0
BITMAP
78
40
60
30
b0
e0
ENDCHAR
STARTCHAR six
ENCODING 54
SWIDTH 574 0
DWIDTH 5 0
BBX 4 6 0 0
BITMAP
30
40
f0
d0
f0
60
ENDCHAR
STARTCHAR seven
ENCODING 55
SWIDTH 574 0
DWIDTH 5 0
BBX 5 6 0 0
BITMAP
f8
98
30
20
60
60
ENDCHAR
STARTCHAR eight
ENCODING 56
SWIDTH 574 0
DWIDTH 5 0
BBX 4 6 0 0
BITMAP
30
50
60
b0
b0
60
ENDCHAR
STARTCHAR nine
ENCODING 57
SWIDTH 574 0
DWIDTH 5 0
BBX 4 6 0 0
BITMAP
60
b0
b0
70
20
c0
ENDCHAR
STARTCHAR colon
ENCODING 58
SWIDTH 287 0
DWIDTH 3 0
BBX 2 5 1 0
BITMAP
40
40
00
80
80
ENDCHAR
STARTCHAR semicolon
ENCODING 59
SWIDTH 287 0
DWIDTH 3 0
BBX 3 6 0 -1
BITMAP
20
20
00
40
40
80
ENDCHAR
STARTCHAR less
ENCODING 60
SWIDTH 606 0
DWIDTH 6 0
BBX 5 5 0 0
BITMAP
18
20
c0
20
10
ENDCHAR
STARTCHAR equal
ENCODING 61
SWIDTH 606 0
DWIDTH 5 0
BBX 4 3 0 1
BITMAP
f0
00
f0
ENDCHAR
STARTCHAR greater
ENCODING 62
SWIDTH 606 0
DWIDTH 6 0
BBX 5 5 0 0
BITMAP
40
20
18
20
c0
ENDCHAR
STARTCHAR question
ENCODING 63
SWIDTH 481 0
DWIDTH 5 0
BBX 3 6 1 0
BITMAP
c0
60
c0
00
80
80
ENDCHAR
STARTCHAR at
ENCODING 64
SWIDTH 747 0
DWIDTH 9 0
BBX 8 7 0 0
BITMAP
3e
41
5d
b5
9e
40
3c
ENDCHAR
STARTCHAR A
ENCODING 65
SWIDTH 741 0
DWIDTH 6 0
BBX 7 6 -1 0
BITMAP
18
18
2c
7c
44
ee
ENDCHAR
STARTCHAR B
ENCODING 66
SWIDTH 759 0
DWIDTH 6 0
BBX 6 6 0 0
BITMAP
78
2c
38
6c
6c
f8
ENDCHAR
STARTCHAR C
ENCODING 67
SWIDTH 759 0
DWIDTH 6 0
BBX 6 6 0 0
BITMAP
3c
64
c0
c0
c8
70
ENDCHAR
STARTCHAR D
ENCODING 68
SWIDTH 833 0
DWIDTH 7 0
BBX 6 6 0 0
BITMAP
78
24
24
6c
6c
f8
ENDCHAR
STARTCHAR E
ENCODING 69
SWIDTH 741 0
DWIDTH 6 0
BBX 6 6 0 0
BITMAP
7c
20
38
68
60
f8
ENDCHAR
STARTCHAR F
ENCODING 70
SWIDTH 704 0
DWIDTH 6 0
BBX 6 6 0 0
BITMAP
7c
20
38
68
60
e0
ENDCHAR
STARTCHAR G
ENCODING 71
SWIDTH 815 0
DWIDTH 6 0
BBX 6 6 0 0
BITMAP
3c
64
c0
dc
d8
68
ENDCHAR
STARTCHAR H
ENCODING 72
SWIDTH 870 0
DWIDTH 8 0
BBX 7 6 0 0
BITMAP
76
26
3e
64
6c
ec
ENDCHAR
STARTCHAR I
ENCODING 73
SWIDTH 444 0
DWIDTH 5 0
BBX 5 6 0 0
BITMAP
78
30
30
60
60
f0
ENDCHAR
STARTCHAR J
ENCODING 74
SWIDTH 667 0
DWIDTH 6 0
BBX 6 6 0 0
BITMAP
3c
18
18
d0
b0
60
ENDCHAR
STARTCHAR K
ENCODING 75
SWIDTH 778 0
DWIDTH 8 0
BBX 7 6 0 0
BITMAP
76
34
38
68
6c
e6
ENDCHAR
STARTCHAR L
ENCODING 76
SWIDTH 704 0
DWIDTH 6 0
BBX 5 6 0 0
BITMAP
78
30
30
60
68
f8
ENDCHAR
STARTCHAR M
ENCODING 77
SWIDTH 944 0
DWIDTH 9 0
BBX 9 6 -1 0
BITMAP
7180
3300
3700
7b00
5b00
d380
ENDCHAR
STARTCHAR N
ENCODING 78
SWIDTH 852 0
DWIDTH 6 0
BBX 7 6 -1 0
BITMAP
76
34
34
7c
48
e8
ENDCHAR
STARTCHAR O
ENCODING 79
SWIDTH 833 0
DWIDTH 6 0
BBX 6 6 0 0
BITMAP
38
6c
cc
cc
d8
70
ENDCHAR
STARTCHAR P
ENCODING 80
SWIDTH 741 0
DWIDTH 6 0
BBX 6 6 0 0
BITMAP
78
24
24
78
60
e0
ENDCHAR
STARTCHAR Q
ENCODING 81
SWIDTH 833 0
DWIDTH 6 0
BBX 6 8 0 -2
BITMAP
38
6c
cc
cc
c8
74
38
40
ENDCHAR
STARTCHAR R
ENCODING 82
SWIDTH 796 0
DWIDTH 7 0
BBX 7 6 0 0
BITMAP
7c
26
3c
78
6c
ec
ENDCHAR
STARTCHAR S
ENCODING 83
SWIDTH 685 0
DWIDTH 6 0
BBX 5 6 0 0
BITMAP
38
68
60
30
b0
e0
ENDCHAR
STARTCHAR T
ENCODING 84
SWIDTH 722 0
DWIDTH 6 0
BBX 5 6 0 0
BITMAP
f8
a8
20
60
60
f0
ENDCHAR
STARTCHAR U
ENCODING 85
SWIDTH 833 0
DWIDTH 6 0
BBX 7 6 0 0
BITMAP
ee
64
64
c8
c8
70
ENDCHAR
STARTCHAR V
ENCODING 86
SWIDTH 741 0
DWIDTH 6 0
BBX 6 6 0 0
BITMAP
ec
48
58
50
60
60
ENDCHAR
STARTCHAR W
ENCODING 87
SWIDTH 944 0
DWIDTH 9 0
BBX 9 6 0 0
BITMAP
ed80
4900
6a00
7e00
3400
2400
ENDCHAR
STARTCHAR X
ENCODING 88
SWIDTH 741 0
DWIDTH 6 0
BBX 7 6 -1 0
BITMAP
76
34
18
38
4c
ee
ENDCHAR
STARTCHAR Y
ENCODING 89
SWIDTH 704 0
DWIDTH 6 0
BBX 6 6 0 0
BITMAP
ec
68
30
20
60
e0
ENDCHAR
STARTCHAR Z
ENCODING 90
SWIDTH 704 0
DWIDTH 6 0
BBX 6 6 0 0
BITMAP
7c
58
30
68
c8
f8
ENDCHAR
STARTCHAR bracketleft
ENCODING 91
SWIDTH 407 0
DWIDTH 4 0
BBX 3 8 0 -2
BITMAP
60
40
40
40
80
80
80
c0
ENDCHAR
STARTCHAR backslash
ENCODING 92
SWIDTH 606 0
DWIDTH 4 0
BBX 3 6 0 0
BITMAP
80
80
40
40
20
20
ENDCHAR
STARTCHAR bracketright
ENCODING 93
SWIDTH 407 0
DWIDTH 4 0
BBX 3 8 0 -2
BITMAP
60
20
20
20
40
40
40
c0
ENDCHAR
STARTCHAR asciicircum
ENCODING 94
SWIDTH 606 0
DWIDTH 5 0
BBX 4 4 0 2
BITMAP
20
60
60
90
ENDCHAR
STARTCHAR underscore
ENCODING 95
SWIDTH 500 0
DWIDTH 4 0
BBX 4 1 0 -1
BITMAP
f0
ENDCHAR
STARTCHAR grave
ENCODING 96
SWIDTH 333 0
DWIDTH 4 0
BBX 3 2 0 6
BITMAP
c0
60
ENDCHAR
STARTCHAR a
ENCODING 97
SWIDTH 667 0
DWIDTH 6 0
BBX 5 4 0 0
BITMAP
70
38
d0
78
ENDCHAR
STARTCHAR b
ENCODING 98
SWIDTH 611 0
DWIDTH 6 0
BBX 5 6 0 0
BITMAP
e0
60
70
d8
d0
60
ENDCHAR
STARTCHAR c
ENCODING 99
SWIDTH 537 0
DWIDTH 5 0
BBX 4 4 0 0
BITMAP
70
d0
c0
70
ENDCHAR
STARTCHAR d
ENCODING 100
SWIDTH 667 0
DWIDTH 6 0
BBX 6 6 0 0
BITMAP
1c
18
78
d0
d0
78
ENDCHAR
STARTCHAR e
ENCODING 101
SWIDTH 519 0
DWIDTH 5 0
BBX 4 4 0 0
BITMAP
30
70
c0
70
ENDCHAR
STARTCHAR f
ENCODING 102
SWIDTH 389 0
DWIDTH 4 0
BBX 5 8 0 -2
BITMAP
38
20
f0
60
60
60
40
80
ENDCHAR
STARTCHAR g
ENCODING 103
SWIDTH 611 0
DWIDTH 5 0
BBX 5 7 0 -2
BITMAP
18
70
50
60
c0
b0
f0
ENDCHAR
STARTCHAR h
ENCODING 104
SWIDTH 685 0
DWIDTH 6 0
BBX 5 6 0 0
BITMAP
60
60
70
78
d0
d8
ENDCHAR
STARTCHAR i
ENCODING 105
SWIDTH 389 0
DWIDTH 3 0
BBX 3 6 0 0
BITMAP
60
00
e0
60
c0
c0
ENDCHAR
STARTCHAR j
ENCODING 106
SWIDTH 370 0
DWIDTH 3 0
BBX 4 8 -2 -2
BITMAP
30
00
70
30
30
20
a0
c0
ENDCHAR
STARTCHAR k
ENCODING 107
SWIDTH 648 0
DWIDTH 6 0
BBX 6 6 0 0
BITMAP
60
60
70
48
f4
d8
ENDCHAR
STARTCHAR l
ENCODING 108
SWIDTH 389 0
DWIDTH 3 0
BBX 3 6 0 0
BITMAP
60
60
60
c0
c0
e0
ENDCHAR
STARTCHAR m
ENCODING 109
SWIDTH 944 0
DWIDTH 8 0
BBX 7 4 0 0
BITMAP
f4
7e
d4
d6
ENDCHAR
STARTCHAR n
ENCODING 110
SWIDTH 685 0
DWIDTH 6 0
BBX 5 4 0 0
BITMAP
f0
78
d0
d8
ENDCHAR
STARTCHAR o
ENCODING 111
SWIDTH 574 0
DWIDTH 5 0
BBX 4 4 0 0
BITMAP
60
d0
90
60
ENDCHAR
STARTCHAR p
ENCODING 112
SWIDTH 648 0
DWIDTH 6 0
BBX 6 6 -1 -2
BITMAP
78
2c
68
70
c0
e0
ENDCHAR
STARTCHAR q
ENCODING 113
SWIDTH 630 0
DWIDTH 6 0
BBX 5 6 0 -2
BITMAP
78
d8
d0
70
20
70
ENDCHAR
STARTCHAR r
ENCODING 114
SWIDTH 519 0
DWIDTH 4 0
BBX 4 4 0 0
BITMAP
d0
70
c0
c0
ENDCHAR
STARTCHAR s
ENCODING 115
SWIDTH 481 0
DWIDTH 3 0
BBX 4 4 -1 0
BITMAP
70
e0
30
e0
ENDCHAR
STARTCHAR t
ENCODING 116
SWIDTH 407 0
DWIDTH 3 0
BBX 3 6 0 0
BITMAP
20
60
e0
40
c0
60
ENDCHAR
STARTCHAR u
ENCODING 117
SWIDTH 685 0
DWIDTH 6 0
BBX 5 4 0 0
BITMAP
58
d8
d0
78
ENDCHAR
STARTCHAR v
ENCODING 118
SWIDTH 556 0
DWIDTH 5 0
BBX 4 4 0 0
BITMAP
d0
d0
e0
60
ENDCHAR
STARTCHAR w
ENCODING 119
SWIDTH 833 0
DWIDTH 8 0
BBX 7 4 0 0
BITMAP
da
da
ec
6c
ENDCHAR
STARTCHAR x
ENCODING 120
SWIDTH 574 0
DWIDTH 6 0
BBX 6 4 -1 0
BITMAP
6c
78
30
d8
ENDCHAR
STARTCHAR y
ENCODING 121
SWIDTH 519 0
DWIDTH 6 0
BBX 5 6 0 -2
BITMAP
e8
68
30
20
a0
c0
ENDCHAR
STARTCHAR z
ENCODING 122
SWIDTH 519 0
DWIDTH 4 0
BBX 5 4 -1 0
BITMAP
78
30
60
f0
ENDCHAR
STARTCHAR braceleft
ENCODING 123
SWIDTH 407 0
DWIDTH 4 0
BBX 3 7 0 -1
BITMAP
20
20
40
80
40
40
20
ENDCHAR
STARTCHAR bar
ENCODING 124
SWIDTH 606 0
DWIDTH 5 0
BBX 1 6 2 0
BITMAP
80
80
80
80
80
80
ENDCHAR
STARTCHAR braceright
ENCODING 125
SWIDTH 407 0
DWIDTH 4 0
BBX 3 7 1 -1
BITMAP
80
40
40
20
40
80
80
ENDCHAR
STARTCHAR asciitilde
ENCODING 126
SWIDTH 606 0
DWIDTH 6 0
BBX 5 2 0 2
BITMAP
68
b0
ENDCHAR
STARTCHAR nobreakspace
ENCODING 160
SWIDTH 287 0
DWIDTH 2 0
BBX 1 1 0 0
BITMAP
00
ENDCHAR
STARTCHAR Aogonek
ENCODING 161
SWIDTH 741 0
DWIDTH 6 0
BBX 7 9 -1 -3
BITMAP
18
18
2c
7c
44
ee
08
10
18
ENDCHAR
STARTCHAR breve
ENCODING 162
SWIDTH 333 0
DWIDTH 5 0
BBX 4 2 0 6
BITMAP
90
60
ENDCHAR
STARTCHAR Lstroke
ENCODING 163
SWIDTH 704 0
DWIDTH 7 0
BBX 6 8 0 0
BITMAP
78
30
30
38
e0
60
64
fc
ENDCHAR
STARTCHAR currency
ENCODING 164
SWIDTH 574 0
DWIDTH 6 0
BBX 5 5 0 1
BITMAP
88
70
50
70
88
ENDCHAR
STARTCHAR Lcaron
ENCODING 165
SWIDTH 1080 0
DWIDTH 9 0
BBX 8 7 0 0
BITMAP
01
79
31
32
60
68
f8
ENDCHAR
STARTCHAR Sacute
ENCODING 166
SWIDTH 685 0
DWIDTH 6 0
BBX 5 9 0 0
BITMAP
10
20
00
38
68
60
30
b0
e0
ENDCHAR
STARTCHAR section
ENCODING 167
SWIDTH 500 0
DWIDTH 5 0
BBX 4 7 0 -1
BITMAP
30
40
e0
d0
70
20
c0
ENDCHAR
STARTCHAR diaeresis
ENCODING 168
SWIDTH 333 0
DWIDTH 3 0
BBX 3 1 0 5
BITMAP
a0
ENDCHAR
STARTCHAR Scaron
ENCODING 169
SWIDTH 685 0
DWIDTH 6 0
BBX 5 10 0 0
BITMAP
d8
70
20
00
38
68
60
30
b0
e0
ENDCHAR
STARTCHAR Scedilla
ENCODING 170
SWIDTH 685 0
DWIDTH 6 0
BBX 5 8 0 -2
BITMAP
38
68
60
30
b0
e0
10
30
ENDCHAR
STARTCHAR Tcaron
ENCODING 171
SWIDTH 722 0
DWIDTH 6 0
BBX 5 10 0 0
BITMAP
d8
70
20
00
f8
a8
20
60
60
f0
ENDCHAR
STARTCHAR Zacute
ENCODING 172
SWIDTH 704 0
DWIDTH 6 0
BBX 6 9 0 0
BITMAP
08
10
00
7c
58
30
68
c8
f8
ENDCHAR
STARTCHAR hyphen
ENCODING 173
SWIDTH 333 0
DWIDTH 3 0
BBX 3 1 0 2
BITMAP
e0
ENDCHAR
STARTCHAR Zcaron
ENCODING 174
SWIDTH 704 0
DWIDTH 6 0
BBX 6 10 0 0
BITMAP
6c
38
10
00
7c
58
30
68
c8
f8
ENDCHAR
STARTCHAR Zabovedot
ENCODING 175
SWIDTH 704 0
DWIDTH 6 0
BBX 6 9 0 0
BITMAP
10
10
00
7c
58
30
68
c8
f8
ENDCHAR
STARTCHAR degree
ENCODING 176
SWIDTH 400 0
DWIDTH 3 0
BBX 3 3 1 4
BITMAP
60
a0
c0
ENDCHAR
STARTCHAR aogonek
ENCODING 177
SWIDTH 667 0
DWIDTH 6 0
BBX 5 7 0 -3
BITMAP
70
38
d0
78
10
20
30
ENDCHAR
STARTCHAR ogonek
ENCODING 178
SWIDTH 333 0
DWIDTH 3 0
BBX 2 3 0 -2
BITMAP
40
80
c0
ENDCHAR
STARTCHAR lstroke
ENCODING 179
SWIDTH 389 0
DWIDTH 4 0
BBX 4 8 0 0
BITMAP
70
30
60
f0
60
c0
c0
e0
ENDCHAR
STARTCHAR acute
ENCODING 180
SWIDTH 333 0
DWIDTH 3 0
BBX 2 2 1 5
BITMAP
40
80
ENDCHAR
STARTCHAR lcaron
ENCODING 181
SWIDTH 720 0
DWIDTH 6 0
BBX 6 7 0 0
BITMAP
04
64
64
68
c0
c0
e0
ENDCHAR
STARTCHAR sacute
ENCODING 182
SWIDTH 481 0
DWIDTH 3 0
BBX 4 7 -1 0
BITMAP
20
40
00
70
e0
30
e0
ENDCHAR
STARTCHAR caron
ENCODING 183
SWIDTH 333 0
DWIDTH 6 0
BBX 5 3 0 6
BITMAP
d8
70
20
ENDCHAR
STARTCHAR cedilla
ENCODING 184
SWIDTH 333 0
DWIDTH 3 0
BBX 2 2 0 -1
BITMAP
40
c0
ENDCHAR
STARTCHAR scaron
ENCODING 185
SWIDTH 481 0
DWIDTH 3 0
BBX 5 8 -2 0
BITMAP
d8
70
20
00
38
70
18
70
ENDCHAR
STARTCHAR scedilla
ENCODING 186
SWIDTH 481 0
DWIDTH 3 0
BBX 4 6 -1 -2
BITMAP
70
e0
30
e0
20
60
ENDCHAR
STARTCHAR tcaron
ENCODING 187
SWIDTH 720 0
DWIDTH 6 0
BBX 6 9 0 0
BITMAP
04
04
04
28
60
e0
40
c0
60
ENDCHAR
STARTCHAR zacute
ENCODING 188
SWIDTH 519 0
DWIDTH 4 0
BBX 5 7 -1 0
BITMAP
10
20
00
78
30
60
f0
ENDCHAR
STARTCHAR doubleacute
ENCODING 189
SWIDTH 333 0
DWIDTH 8 0
BBX 7 2 0 6
BITMAP
66
cc
ENDCHAR
STARTCHAR zcaron
ENCODING 190
SWIDTH 519 0
DWIDTH 4 0
BBX 5 8 -1 0
BITMAP
d8
70
20
00
78
30
60
f0
ENDCHAR
STARTCHAR zabovedot
ENCODING 191
SWIDTH 519 0
DWIDTH 4 0
BBX 5 7 -1 0
BITMAP
20
20
00
78
30
60
f0
ENDCHAR
STARTCHAR Racute
ENCODING 192
SWIDTH 796 0
DWIDTH 7 0
BBX 7 9 0 0
BITMAP
08
10
00
7c
26
3c
78
6c
ec
ENDCHAR
STARTCHAR Aacute
ENCODING 193
SWIDTH 741 0
DWIDTH 6 0
BBX 7 8 -1 0
BITMAP
04
08
08
18
2c
7c
44
ee
ENDCHAR
STARTCHAR Acircumflex
ENCODING 194
SWIDTH 741 0
DWIDTH 6 0
BBX 7 8 -1 0
BITMAP
08
14
00
18
2c
7c
44
ee
ENDCHAR
STARTCHAR Abreve
ENCODING 195
SWIDTH 741 0
DWIDTH 6 0
BBX 7 9 -1 0
BITMAP
24
18
00
18
18
2c
7c
44
ee
ENDCHAR
STARTCHAR Adiaeresis
ENCODING 196
SWIDTH 741 0
DWIDTH 6 0
BBX 7 8 -1 0
BITMAP
14
00
18
18
2c
7c
44
ee
ENDCHAR
STARTCHAR Lacute
ENCODING 197
SWIDTH 704 0
DWIDTH 6 0
BBX 5 9 0 0
BITMAP
10
20
00
78
30
30
60
68
f8
ENDCHAR
STARTCHAR Cacute
ENCODING 198
SWIDTH 759 0
DWIDTH 6 0
BBX 6 9 0 0
BITMAP
08
10
00
3c
64
c0
c0
c8
70
ENDCHAR
STARTCHAR Ccedilla
ENCODING 199
SWIDTH 759 0
DWIDTH 6 0
BBX 5 8 0 -2
BITMAP
38
60
c0
c0
c8
f0
60
c0
ENDCHAR
STARTCHAR Ccaron
ENCODING 200
SWIDTH 759 0
DWIDTH 6 0
BBX 6 10 0 0
BITMAP
6c
38
10
00
3c
64
c0
c0
c8
70
ENDCHAR
STARTCHAR Eacute
ENCODING 201
SWIDTH 741 0
DWIDTH 6 0
BBX 6 8 0 0
BITMAP
08
10
7c
20
38
68
60
f8
ENDCHAR
STARTCHAR Eogonek
ENCODING 202
SWIDTH 741 0
DWIDTH 6 0
BBX 6 9 0 -3
BITMAP
7c
20
38
68
60
f8
10
20
30
ENDCHAR
STARTCHAR Ediaeresis
ENCODING 203
SWIDTH 741 0
DWIDTH 6 0
BBX 6 8 0 0
BITMAP
28
00
7c
20
38
68
60
f8
ENDCHAR
STARTCHAR Ecaron
ENCODING 204
SWIDTH 741 0
DWIDTH 6 0
BBX 6 10 0 0
BITMAP
6c
38
10
00
7c
20
38
68
60
f8
ENDCHAR
STARTCHAR Iacute
ENCODING 205
SWIDTH 444 0
DWIDTH 5 0
BBX 5 8 0 0
BITMAP
08
10
78
30
30
60
60
f0
ENDCHAR
STARTCHAR Icircumflex
ENCODING 206
SWIDTH 444 0
DWIDTH 5 0
BBX 5 8 0 0
BITMAP
10
28
78
30
30
60
60
f0
ENDCHAR
STARTCHAR Dcaron
ENCODING 207
SWIDTH 833 0
DWIDTH 7 0
BBX 6 10 0 0
BITMAP
6c
38
10
00
78
24
24
6c
6c
f8
ENDCHAR
STARTCHAR Dstroke
ENCODING 208
SWIDTH 833 0
DWIDTH 7 0
BBX 6 6 0 0
BITMAP
78
24
f4
6c
6c
f8
ENDCHAR
STARTCHAR Nacute
ENCODING 209
SWIDTH 852 0
DWIDTH 6 0
BBX 7 9 -1 0
BITMAP
08
10
00
76
34
34
7c
48
e8
ENDCHAR
STARTCHAR Ncaron
ENCODING 210
SWIDTH 852 0
DWIDTH 6 0
BBX 7 10 -1 0
BITMAP
6c
38
10
00
76
34
34
7c
48
e8
ENDCHAR
STARTCHAR Oacute
ENCODING 211
SWIDTH 833 0
DWIDTH 6 0
BBX 6 8 0 0
BITMAP
04
08
38
6c
cc
cc
d8
70
ENDCHAR
STARTCHAR Ocircumflex
ENCODING 212
SWIDTH 833 0
DWIDTH 6 0
BBX 6 8 0 0
BITMAP
10
28
38
6c
cc
cc
d8
70
ENDCHAR
STARTCHAR Odoubleacute
ENCODING 213
SWIDTH 833 0
DWIDTH 6 0
BBX 8 9 0 0
BITMAP
33
66
00
38
6c
cc
cc
d8
70
ENDCHAR
STARTCHAR Odiaeresis
ENCODING 214
SWIDTH 833 0
DWIDTH 6 0
BBX 6 8 0 0
BITMAP
28
00
38
6c
cc
cc
d8
70
ENDCHAR
STARTCHAR multiply
ENCODING 215
SWIDTH 606 0
DWIDTH 5 0
BBX 5 4 0 1
BITMAP
c8
70
70
98
ENDCHAR
STARTCHAR Rcaron
ENCODING 216
SWIDTH 796 0
DWIDTH 7 0
BBX 7 10 0 0
BITMAP
6c
38
10
00
7c
26
3c
78
6c
ec
ENDCHAR
STARTCHAR Uring
ENCODING 217
SWIDTH 833 0
DWIDTH 6 0
BBX 7 10 0 0
BITMAP
18
24
18
00
ee
64
64
c8
c8
70
ENDCHAR
STARTCHAR Uacute
ENCODING 218
SWIDTH 833 0
DWIDTH 6 0
BBX 7 8 0 0
BITMAP
08
10
ee
64
64
c8
c8
70
ENDCHAR
STARTCHAR Udoubleacute
ENCODING 219
SWIDTH 833 0
DWIDTH 6 0
BBX 8 9 0 0
BITMAP
33
66
00
ee
64
64
c8
c8
70
ENDCHAR
STARTCHAR Udiaeresis
ENCODING 220
SWIDTH 833 0
DWIDTH 6 0
BBX 7 8 0 0
BITMAP
14
00
ee
64
64
c8
c8
70
ENDCHAR
STARTCHAR Yacute
ENCODING 221
SWIDTH 704 0
DWIDTH 6 0
BBX 6 8 0 0
BITMAP
08
10
ec
68
30
20
60
e0
ENDCHAR
STARTCHAR Tcedilla
ENCODING 222
SWIDTH 722 0
DWIDTH 6 0
BBX 5 8 0 -2
BITMAP
f8
a8
20
60
60
f0
10
30
ENDCHAR
STARTCHAR ssharp
ENCODING 223
SWIDTH 574 0
DWIDTH 6 0
BBX 6 7 0 -1
BITMAP
3c
2c
78
6c
6c
d8
c0
ENDCHAR
STARTCHAR racute
ENCODING 224
SWIDTH 519 0
DWIDTH 4 0
BBX 4 7 0 0
BITMAP
20
40
00
d0
70
c0
c0
ENDCHAR
STARTCHAR aacute
ENCODING 225
SWIDTH 667 0
DWIDTH 6 0
BBX 5 7 0 0
BITMAP
08
10
00
70
38
d0
78
ENDCHAR
STARTCHAR acircumflex
ENCODING 226
SWIDTH 667 0
DWIDTH 6 0
BBX 5 7 0 0
BITMAP
10
28
00
70
38
d0
78
ENDCHAR
STARTCHAR abreve
ENCODING 227
SWIDTH 667 0
DWIDTH 6 0
BBX 5 7 0 0
BITMAP
48
30
00
70
38
d0
78
ENDCHAR
STARTCHAR adiaeresis
ENCODING 228
SWIDTH 667 0
DWIDTH 6 0
BBX 5 6 0 0
BITMAP
28
00
70
38
d0
78
ENDCHAR
STARTCHAR lacute
ENCODING 229
SWIDTH 389 0
DWIDTH 3 0
BBX 3 9 0 0
BITMAP
20
40
00
60
60
60
c0
c0
e0
ENDCHAR
STARTCHAR cacute
ENCODING 230
SWIDTH 537 0
DWIDTH 5 0
BBX 4 7 0 0
BITMAP
20
40
00
70
d0
c0
70
ENDCHAR
STARTCHAR ccedilla
ENCODING 231
SWIDTH 537 0
DWIDTH 5 0
BBX 4 6 0 -2
BITMAP
70
c0
d0
60
20
60
ENDCHAR
STARTCHAR ccaron
ENCODING 232
SWIDTH 537 0
DWIDTH 5 0
BBX 5 8 -1 0
BITMAP
d8
70
20
00
38
68
60
38
ENDCHAR
STARTCHAR eacute
ENCODING 233
SWIDTH 519 0
DWIDTH 5 0
BBX 5 7 0 0
BITMAP
08
10
00
30
70
c0
70
ENDCHAR
STARTCHAR eogonek
ENCODING 234
SWIDTH 519 0
DWIDTH 5 0
BBX 4 7 0 -3
BITMAP
30
70
c0
70
20
40
60
ENDCHAR
STARTCHAR ediaeresis
ENCODING 235
SWIDTH 519 0
DWIDTH 5 0
BBX 5 6 0 0
BITMAP
28
00
30
70
c0
70
ENDCHAR
STARTCHAR ecaron
ENCODING 236
SWIDTH 519 0
DWIDTH 5 0
BBX 5 8 0 0
BITMAP
d8
70
20
00
30
70
c0
70
ENDCHAR
STARTCHAR iacute
ENCODING 237
SWIDTH 389 0
DWIDTH 3 0
BBX 4 7 0 0
BITMAP
10
20
00
e0
60
c0
c0
ENDCHAR
STARTCHAR icircumflex
ENCODING 238
SWIDTH 389 0
DWIDTH 3 0
BBX 4 7 0 0
BITMAP
20
50
00
e0
60
c0
c0
ENDCHAR
STARTCHAR dcaron
ENCODING 239
SWIDTH 1080 0
DWIDTH 9 0
BBX 9 7 0 0
BITMAP
0080
1c80
1880
7900
d000
d000
7800
ENDCHAR
STARTCHAR dstroke
ENCODING 240
SWIDTH 960 0
DWIDTH 8 0
BBX 8 6 0 0
BITMAP
7f
18
78
d0
d0
78
ENDCHAR
STARTCHAR nacute
ENCODING 241
SWIDTH 685 0
DWIDTH 6 0
BBX 5 7 0 0
BITMAP
10
20
00
f0
78
d0
d8
ENDCHAR
STARTCHAR ncaron
ENCODING 242
SWIDTH 685 0
DWIDTH 6 0
BBX 5 8 0 0
BITMAP
d8
70
20
00
f0
78
d0
d8
ENDCHAR
STARTCHAR oacute
ENCODING 243
SWIDTH 574 0
DWIDTH 5 0
BBX 4 7 0 0
BITMAP
10
20
00
60
d0
90
60
ENDCHAR
STARTCHAR ocircumflex
ENCODING 244
SWIDTH 574 0
DWIDTH 5 0
BBX 4 7 0 0
BITMAP
20
50
00
60
d0
90
60
ENDCHAR
STARTCHAR odoubleacute
ENCODING 245
SWIDTH 574 0
DWIDTH 5 0
BBX 7 7 -1 0
BITMAP
66
cc
00
30
68
48
30
ENDCHAR
STARTCHAR odiaeresis
ENCODING 246
SWIDTH 574 0
DWIDTH 5 0
BBX 4 6 0 0
BITMAP
50
00
60
d0
90
60
ENDCHAR
STARTCHAR division
ENCODING 247
SWIDTH 606 0
DWIDTH 5 0
BBX 4 5 0 0
BITMAP
20
00
f0
00
20
ENDCHAR
STARTCHAR rcaron
ENCODING 248
SWIDTH 519 0
DWIDTH 4 0
BBX 5 8 -1 0
BITMAP
d8
70
20
00
68
38
60
60
ENDCHAR
STARTCHAR uring
ENCODING 249
SWIDTH 685 0
DWIDTH 6 0
BBX 5 8 0 0
BITMAP
30
48
30
00
58
d8
d0
78
ENDCHAR
STARTCHAR uacute
ENCODING 250
SWIDTH 685 0
DWIDTH 6 0
BBX 5 7 0 0
BITMAP
08
10
00
58
d8
d0
78
ENDCHAR
STARTCHAR udoubleacute
ENCODING 251
SWIDTH 685 0
DWIDTH 6 0
BBX 7 7 0 0
BITMAP
66
cc
00
58
d8
d0
78
ENDCHAR
STARTCHAR udiaeresis
ENCODING 252
SWIDTH 685 0
DWIDTH 6 0
BBX 5 6 0 0
BITMAP
28
00
58
d8
d0
78
ENDCHAR
STARTCHAR yacute
ENCODING 253
SWIDTH 519 0
DWIDTH 6 0
BBX 5 9 0 -2
BITMAP
08
10
00
e8
68
30
20
a0
c0
ENDCHAR
STARTCHAR tcedilla
ENCODING 254
SWIDTH 407 0
DWIDTH 3 0
BBX 3 8 0 -2
BITMAP
20
60
e0
40
c0
60
20
60
ENDCHAR
STARTCHAR abovedot
ENCODING 255
SWIDTH 333 0
DWIDTH 4 0
BBX 1 2 1 6
BITMAP
80
80
ENDCHAR
ENDFONT
